<?xml version="1.0" standalone="no"?><!DOCTYPE svg PUBLIC "-//W3C//DTD SVG 1.1//EN" "http://www.w3.org/Graphics/SVG/1.1/DTD/svg11.dtd"><svg t="1621588310091" class="icon" viewBox="0 0 1024 1024" version="1.1" xmlns="http://www.w3.org/2000/svg" p-id="1034" width="200" height="200" xmlns:xlink="http://www.w3.org/1999/xlink"><defs><style type="text/css"></style></defs><path d="M857.6 0H165.888C74.24 0 0 74.24 0 166.4v691.2c0 92.16 74.24 166.4 165.888 166.4h692.224c91.648 0 165.888-74.24 165.888-166.4v-691.2c-0.512-92.16-74.752-166.4-166.4-166.4zM384 686.08c-38.4 0-69.632-7.68-108.544-15.872l-108.544 54.272 31.232-93.184c-77.824-54.272-123.904-123.904-123.904-209.92 0-147.968 139.776-264.192 310.784-264.192 152.576 0 286.208 93.184 312.832 218.112-10.24-1.024-19.456-1.536-30.208-1.536-147.456 0-264.192 110.08-264.192 245.76 0 22.528 3.584 44.544 9.728 65.024-9.728 1.024-19.456 1.536-29.184 1.536z m457.728 108.544l23.04 77.824-84.992-46.592c-31.232 7.68-62.464 15.872-93.184 15.872-147.968 0-264.192-100.864-264.192-225.28 0-123.904 116.224-225.28 264.192-225.28 139.776 0 263.68 101.376 263.68 225.28 0.512 69.632-46.08 131.584-108.544 178.176z" p-id="1035" fill="#1afa29"></path><path d="M237.568 323.072c0 12.288 5.12 24.064 13.312 32.768 8.704 8.704 20.48 13.312 32.768 13.312 12.288 0 24.064-5.12 32.768-13.312 8.704-8.704 13.312-20.992 13.312-32.768 0-12.288-5.12-24.064-13.312-32.768-8.704-8.704-20.992-13.312-32.768-13.312-12.288 0-24.064 5.12-32.768 13.312-8.704 8.704-13.312 20.992-13.312 32.768zM462.336 323.072c0 12.288 5.12 24.064 13.312 32.768s20.992 13.312 32.768 13.312c12.288 0 24.064-5.12 32.768-13.312 8.704-8.704 13.312-20.992 13.312-32.768 0-12.288-5.12-24.064-13.312-32.768-8.704-8.704-20.992-13.312-32.768-13.312-12.288 0-24.064 5.12-32.768 13.312-8.192 8.704-13.312 20.992-13.312 32.768zM574.464 547.328c0 9.216 3.584 18.432 10.752 25.088 6.656 6.144 15.872 10.24 25.088 10.24s18.432-3.584 25.088-10.24c6.656-6.144 10.752-15.872 10.752-25.088s-3.584-18.432-10.752-25.088c-6.656-6.144-15.872-10.24-25.088-10.24s-18.432 3.584-25.088 10.24c-6.656 6.656-10.752 15.872-10.752 25.088zM737.28 547.328c0 9.216 3.584 18.432 10.752 25.088 6.656 6.144 15.872 10.24 25.088 10.24s18.432-3.584 25.088-10.24c6.656-6.144 10.752-15.872 10.752-25.088s-3.584-18.432-10.752-25.088c-6.656-6.144-15.872-10.24-25.088-10.24s-18.432 3.584-25.088 10.24c-6.656 6.656-10.752 15.872-10.752 25.088z" p-id="1036" fill="#1afa29"></path></svg>